<?xml version="1.0" encoding="utf-8"?>
<!-- Generator: Adobe Illustrator 15.1.0, SVG Export Plug-In . SVG Version: 6.00 Build 0)  -->
<!DOCTYPE svg PUBLIC "-//W3C//DTD SVG 1.1//EN" "http://www.w3.org/Graphics/SVG/1.1/DTD/svg11.dtd">
<svg version="1.1" id="Layer_20" xmlns="http://www.w3.org/2000/svg" xmlns:xlink="http://www.w3.org/1999/xlink" x="0px" y="0px"
	 width="149.666px" height="189.274px" viewBox="0 0 149.666 189.274" enable-background="new 0 0 149.666 189.274"
	 xml:space="preserve">
<g>
	<g>
		<g>
			<path fill="#020001" d="M19.493,49.59c-1.996-0.702-3.947-1.311-5.945-1.565c-1.994-0.269-3.99-0.115-5.98,0.636
				c0.785-0.724,1.793-1.217,2.854-1.472c1.064-0.266,2.178-0.284,3.254-0.155c1.078,0.148,2.127,0.44,3.107,0.873
				C17.763,48.336,18.696,48.876,19.493,49.59z"/>
		</g>
		<g>
			<path fill="#020001" d="M19.071,51.014c-1.471-0.345-2.955-0.464-4.416-0.454c-1.461,0.031-2.908,0.235-4.283,0.676
				c-2.777,0.841-5.158,2.637-7.242,4.821c0.734-1.321,1.693-2.548,2.885-3.536c1.176-1.003,2.572-1.767,4.061-2.239
				C13.056,49.365,16.376,49.615,19.071,51.014z"/>
		</g>
		<g>
			<path fill="#020001" d="M18.228,51.962c-2.211,0.417-4.348,0.876-6.35,1.672c-2.004,0.782-3.818,1.934-5.217,3.714
				c0.338-1.084,1.031-2.066,1.893-2.843c0.859-0.789,1.889-1.369,2.955-1.8c1.076-0.416,2.197-0.691,3.328-0.815
				C15.966,51.764,17.11,51.755,18.228,51.962z"/>
		</g>
		<g>
			<path fill="#7AD7EE" d="M78.767,112.368c0,0,32.918,14.388,10.463,13.953"/>
			<path fill="#020001" d="M78.786,112.322c2.496,0.732,4.873,1.761,7.137,3.009c1.117,0.654,2.188,1.391,3.293,2.056
				c1.104,0.667,2.244,1.271,3.377,1.907c1.133,0.633,2.244,1.326,3.25,2.207c0.498,0.445,0.988,0.918,1.381,1.549
				c0.191,0.316,0.359,0.692,0.379,1.152c0.027,0.46-0.191,0.964-0.504,1.257c-0.633,0.583-1.326,0.769-1.988,0.917
				c-0.668,0.131-1.328,0.192-1.984,0.225c-1.314,0.042-2.611-0.042-3.896-0.229l0.002-0.1c1.287-0.142,2.568-0.252,3.82-0.449
				c0.625-0.09,1.244-0.208,1.826-0.381c0.568-0.175,1.158-0.396,1.457-0.725c0.611-0.483-0.275-1.72-1.131-2.525
				c-0.896-0.86-1.898-1.656-2.912-2.438c-1.023-0.773-2.098-1.484-3.236-2.083c-1.137-0.599-2.34-1.076-3.512-1.598
				c-2.32-1.102-4.586-2.298-6.799-3.657L78.786,112.322z"/>
		</g>
		<path opacity="0.25" fill="#078D9E" d="M78.767,112.368c0,0,32.918,14.388,10.463,13.953"/>
		<g>
			<path fill="#7AD7EE" d="M54.622,6.803C45.778,0.131,33.2,1.892,26.528,10.736c-6.672,8.843-4.912,21.421,3.932,28.094
				c2.143,1.617,4.506,2.734,6.951,3.38c5.566-5.136,12.953-6.976,20.121-6.075c0.354-0.396,0.695-0.806,1.021-1.238
				C65.226,26.054,63.466,13.476,54.622,6.803z"/>
			<g>
				<path fill="#020001" d="M54.591,6.843c-2.367-1.741-5.104-3.012-7.994-3.519c-2.879-0.532-5.861-0.404-8.662,0.34
					c-5.633,1.423-10.488,5.362-13.123,10.534c-1.316,2.581-2.068,5.47-2.135,8.392c-0.051,2.918,0.527,5.868,1.777,8.518
					c2.424,5.358,7.449,9.336,13.059,10.716l-0.371,0.092c2.67-2.536,5.967-4.407,9.506-5.453c3.537-1.063,7.299-1.327,10.949-0.844
					l-0.453,0.17c1.807-2.008,3.164-4.375,4.01-6.936c0.879-2.547,1.191-5.282,0.998-7.986c-0.195-2.706-0.959-5.385-2.248-7.803
					C58.622,10.638,56.769,8.524,54.591,6.843z M54.651,6.763c2.234,1.638,4.094,3.765,5.512,6.155
					c1.418,2.393,2.336,5.093,2.686,7.879c0.363,2.788,0.072,5.658-0.752,8.361c-0.854,2.691-2.303,5.214-4.176,7.321l-0.18,0.203
					l-0.273-0.033c-3.523-0.422-7.133-0.214-10.545,0.755c-3.412,0.967-6.598,2.716-9.242,5.097l-0.164,0.149l-0.207-0.056
					c-5.834-1.586-10.721-5.925-13.156-11.349c-2.457-5.414-2.527-11.897,0.031-17.353c1.256-2.73,3.168-5.155,5.508-7.057
					c2.342-1.904,5.148-3.214,8.074-3.875C43.653,1.669,49.964,3.156,54.651,6.763z"/>
			</g>
		</g>
		<path opacity="0.25" fill="#078D9E" d="M54.622,6.803C46.87,0.954,36.249,1.588,29.251,7.791
			c8.77-0.095,17.846,3.312,23.551,8.542c-11.055,0-22.098,4.306-29.268,12.887c1.244,3.702,3.572,7.082,6.926,9.611
			c2.143,1.617,4.506,2.734,6.951,3.38c5.566-5.136,12.953-6.976,20.121-6.075c0.354-0.396,0.695-0.806,1.021-1.238
			C65.226,26.054,63.466,13.476,54.622,6.803z"/>
		<g>
			<path fill="#7AD7EE" d="M96.159,146.998c0,0,13.682-5.257,16.766-25.446c3.082-20.189,24.645-37.05,30.504-32.17
				c5.859,4.881-0.141,6.213-1.91,4.438c-1.771-1.775-20.762,6.95-24.242,29.096c-3.48,22.147-19.666,32.468-21.117,29.863
				C96.159,152.778,89.624,154.697,96.159,146.998z"/>
			<g>
				<path fill="#020001" d="M96.142,146.952c3.193-1.501,5.908-3.864,8.199-6.5c2.293-2.653,4.096-5.704,5.43-8.936
					c1.357-3.229,2.229-6.638,2.742-10.115c0.52-3.536,1.654-6.974,3.154-10.206c3.039-6.464,7.576-12.146,12.977-16.74
					c2.709-2.279,5.688-4.315,9.059-5.521c0.848-0.278,1.723-0.503,2.627-0.557c0.896-0.066,1.844,0.051,2.666,0.495
					c0.422,0.226,0.752,0.536,1.084,0.829c0.332,0.301,0.654,0.613,0.953,0.953c0.564,0.675,1.193,1.469,1.115,2.517
					c-0.055,0.519-0.41,0.977-0.832,1.222c-0.424,0.258-0.896,0.374-1.365,0.417c-0.916,0.075-1.959-0.146-2.648-0.807
					c-0.197-0.153-0.678-0.137-1.068-0.074c-0.412,0.063-0.826,0.179-1.234,0.314c-0.816,0.275-1.613,0.632-2.385,1.032
					c-3.092,1.619-5.861,3.834-8.291,6.337c-4.887,5.007-8.297,11.376-9.889,18.168c-0.432,1.694-0.648,3.415-0.996,5.184
					c-0.35,1.751-0.783,3.484-1.316,5.189c-1.049,3.414-2.496,6.707-4.33,9.771c-1.824,3.066-3.998,5.931-6.551,8.428
					c-1.277,1.245-2.646,2.403-4.145,3.388c-0.754,0.486-1.535,0.936-2.379,1.275c-0.424,0.168-0.863,0.308-1.336,0.371
					c-0.236,0.025-0.484,0.035-0.742-0.021c-0.252-0.053-0.535-0.213-0.68-0.479l0.264,0.108c-0.785,0.176-1.596,0.327-2.428,0.026
					c-0.426-0.148-0.734-0.638-0.701-1.071c0.004-0.433,0.146-0.818,0.305-1.183c0.688-1.436,1.709-2.628,2.723-3.803l0.006-0.009
					L96.142,146.952z M96.192,147.037c-0.961,1.204-1.934,2.443-2.537,3.842c-0.137,0.35-0.25,0.718-0.236,1.066
					c0.004,0.353,0.195,0.623,0.518,0.736c0.652,0.221,1.459,0.068,2.158-0.122l0.178-0.048l0.086,0.156
					c0.143,0.256,0.564,0.302,0.961,0.242c0.404-0.063,0.811-0.199,1.205-0.364c0.789-0.337,1.539-0.786,2.258-1.274
					c1.438-0.985,2.756-2.148,3.984-3.395c2.451-2.5,4.529-5.356,6.256-8.398c1.717-3.049,3.092-6.285,4.127-9.625
					c0.516-1.671,0.936-3.372,1.271-5.087c0.328-1.7,0.553-3.494,0.986-5.23c1.654-6.965,5.236-13.476,10.295-18.536
					c2.537-2.513,5.402-4.716,8.613-6.318c0.803-0.396,1.631-0.749,2.496-1.022c0.434-0.133,0.875-0.249,1.338-0.311
					c0.459-0.033,0.953-0.148,1.502,0.216c0.59,0.595,1.436,0.778,2.26,0.741c0.801-0.039,1.691-0.428,1.789-1.195
					c0.094-0.765-0.43-1.555-0.967-2.2c-0.279-0.329-0.582-0.642-0.904-0.936c-0.326-0.292-0.646-0.594-1.008-0.787
					c-0.736-0.405-1.613-0.528-2.473-0.471c-0.861,0.044-1.717,0.255-2.547,0.521c-1.662,0.547-3.225,1.382-4.701,2.333
					c-1.479,0.95-2.877,2.025-4.209,3.175c-5.289,4.646-9.535,10.447-12.455,16.804c-1.447,3.188-2.508,6.54-3.074,9.993
					c-0.555,3.506-1.479,6.992-2.896,10.269c-1.42,3.276-3.35,6.336-5.744,8.979C102.321,143.406,99.46,145.648,96.192,147.037z"/>
			</g>
		</g>
		<path opacity="0.25" fill="#078D9E" d="M106.866,141.903c-1.744,2.616-3.488,5.231-7.848,5.231
			c0.219-0.656,0.383-1.367,0.561-2.079c-2.012,1.398-3.42,1.942-3.42,1.942c-6.535,7.699,0,5.78,0,5.78
			c1.451,2.605,17.637-7.716,21.117-29.863c2.389-15.195,12.078-24.071,18.496-27.572
			C118.722,101.877,115.407,126.245,106.866,141.903z"/>
		<g>
			<path fill="#7AD7EE" d="M56.771,91.6c5.324-3.993,5.324-21.298,0-26.623c-8.877-8.877-27.414-5.684-38.357-16.871
				c-1.967,4.809,2.186,10.133,4.023,15.374c6.713,19.136,13.049,27.736,29.971,38.639C54.167,98.35,53.179,94.793,56.771,91.6z"/>
			<path fill="#020001" d="M56.739,91.562c1.166-0.91,1.902-2.247,2.441-3.604c0.531-1.372,0.881-2.813,1.086-4.271
				c0.4-2.918,0.371-5.888-0.027-8.791c-0.199-1.452-0.506-2.886-0.928-4.278c-0.416-1.39-0.967-2.745-1.736-3.943
				c-0.746-1.202-1.865-2.117-3.012-2.995c-1.164-0.854-2.434-1.566-3.762-2.167c-5.34-2.384-11.244-3.402-16.926-5.057
				c-2.854-0.801-5.664-1.788-8.342-3.082c-2.67-1.303-5.166-3-7.287-5.108l0.381-0.074c-0.494,1.248-0.564,2.625-0.338,3.95
				c0.221,1.331,0.697,2.618,1.238,3.873c1.096,2.508,2.475,4.938,3.416,7.593c1.881,5.189,3.938,10.327,6.621,15.122
				c2.619,4.827,5.996,9.209,9.969,13.002c3.959,3.81,8.387,7.143,12.971,10.231l-0.264,0.076c0.861-1.708,1.141-3.643,1.594-5.525
				c0.238-0.94,0.559-1.872,1.047-2.717C55.366,92.95,56.011,92.202,56.739,91.562z M56.804,91.638
				c-0.711,0.646-1.332,1.392-1.795,2.232c-0.467,0.838-0.768,1.757-0.988,2.691c-0.439,1.866-0.629,3.83-1.447,5.634l-0.086,0.188
				l-0.18-0.111c-4.707-2.915-9.336-6.04-13.43-9.845c-4.107-3.784-7.547-8.296-10.242-13.182
				c-2.672-4.907-4.703-10.105-6.512-15.346c-0.852-2.594-2.197-5.019-3.234-7.617c-0.516-1.298-0.973-2.643-1.166-4.054
				c-0.197-1.403-0.092-2.889,0.475-4.211l0.141-0.328l0.24,0.254c2.016,2.134,4.467,3.831,7.1,5.141
				c2.629,1.334,5.455,2.236,8.299,3.01c2.85,0.776,5.752,1.34,8.637,2.018c2.879,0.685,5.787,1.403,8.535,2.631
				c1.373,0.606,2.703,1.333,3.936,2.219c1.211,0.882,2.395,1.927,3.203,3.26c1.596,2.64,2.242,5.644,2.541,8.603
				c0.283,2.971,0.197,5.972-0.32,8.9c-0.271,1.459-0.613,2.914-1.178,4.292C58.767,89.381,58.003,90.729,56.804,91.638z"/>
		</g>
		<path opacity="0.25" fill="#078D9E" d="M58.515,91.6c5.324-3.993,5.324-21.298,0-26.623c-8.877-8.877-27.414-5.684-38.357-16.871
			c-1.967,4.809,2.186,10.133,4.023,15.374c6.713,19.136,13.049,27.736,29.971,38.639C55.911,98.35,54.923,94.793,58.515,91.6z"/>
		<g>
			<path fill="#FCC581" d="M108.593,66.835c0,18.808,0,35.692-46.629,34.054c-42.359-1.49-46.043-13.753-36.506-33.999
				c8.117-17.235,10.752-34.11,36.506-34.11C87.716,32.779,108.593,48.026,108.593,66.835z"/>
			<g>
				<path d="M108.642,66.835c0.01,5.25,0.09,10.568-1.117,15.735c-0.605,2.569-1.602,5.079-3.121,7.273
					c-1.506,2.202-3.514,4.043-5.76,5.476c-4.525,2.882-9.795,4.225-14.996,5.075c-5.234,0.832-10.533,1.021-15.807,1.018
					c-5.275-0.053-10.543-0.337-15.793-0.85c-5.24-0.544-10.48-1.313-15.566-2.746c-2.537-0.728-5.027-1.656-7.361-2.912
					c-2.32-1.254-4.496-2.916-6.004-5.139c-1.529-2.208-2.234-4.918-2.236-7.579c-0.02-2.673,0.535-5.303,1.305-7.833
					c0.771-2.535,1.773-4.989,2.875-7.39c1.105-2.383,2.127-4.801,3.139-7.23c2.033-4.844,3.988-9.784,6.863-14.282
					c1.436-2.24,3.113-4.354,5.107-6.155c1.986-1.807,4.281-3.278,6.742-4.349c4.947-2.156,10.379-2.729,15.662-2.68
					c10.58,0.098,21.291,2.808,30.203,8.615c4.428,2.901,8.391,6.584,11.277,11.026c1.43,2.221,2.609,4.61,3.402,7.13
					C108.247,61.559,108.649,64.198,108.642,66.835z M108.542,66.835c-0.014-5.264-1.76-10.453-4.721-14.771
					c-2.961-4.334-6.961-7.88-11.398-10.624c-8.928-5.483-19.441-8.036-29.859-8.139c-5.203-0.049-10.477,0.573-15.236,2.604
					c-2.371,1.015-4.574,2.406-6.494,4.13c-1.928,1.717-3.564,3.75-4.98,5.929c-2.824,4.379-4.844,9.254-6.947,14.072
					c-1.047,2.415-2.107,4.833-3.25,7.208c-1.125,2.366-2.152,4.783-2.949,7.273c-0.781,2.488-1.35,5.067-1.355,7.668
					c-0.021,2.591,0.633,5.207,2.09,7.361c1.439,2.168,3.553,3.821,5.832,5.082c2.289,1.271,4.783,2.141,7.303,2.855
					c5.059,1.408,10.293,2.092,15.523,2.524c5.236,0.419,10.496,0.595,15.744,0.576c5.248-0.003,10.496-0.296,15.674-1.045
					c5.152-0.779,10.316-2.079,14.795-4.751c2.219-1.343,4.211-3.083,5.73-5.197c1.531-2.107,2.57-4.55,3.229-7.083
					C108.573,77.407,108.495,72.081,108.542,66.835z"/>
			</g>
		</g>
		<path opacity="0.24" fill="#F69D01" d="M61.964,32.779c-19.266,0-25.594,9.444-30.959,21.417
			c-0.977,1.008-1.521,1.671-1.521,1.671s-4.186,6.008-2.098,9.176c0,0,1.279,0.553,0.758,1.425c0,0,1.232-1.398,1.02-3.904
			c0.473-0.022,0.945-0.031,1.418-0.033c3.547,2.587,11.715,8.924,11.715,12.44c0,0,2.41-4.509-0.184-9.013
			c1.24,2.049,5.889,9.343,9.816,10.348c0,0,3.914,2.305,3.211,3.155c0,0,1.26-1.474,1.641-3.705
			c0.422,3.814-0.035,8.426-0.49,12.081c-0.873,6.104-6.977,7.848-12.209,8.72c-4.344,0.869-9.121,0.438-13.469-1.075
			c6.443,3.042,16.525,4.885,31.352,5.406c46.629,1.638,46.629-15.246,46.629-34.054C108.593,48.026,87.716,32.779,61.964,32.779z"
			/>
		<path d="M29.483,54.124c0,0-4.186,6.008-2.098,9.176c0,0,1.279,0.553,0.758,1.425c0,0,1.625-1.84,0.824-5.084
			c0,0,13.328,9.096,13.328,13.587c0,0,2.623-4.876-0.504-9.552c0,0,5.559,9.716,10.137,10.887c0,0,3.914,2.305,3.211,3.155
			c0,0,4.311-5.036-0.594-10.595c0,0,8.27,9.649,5.824,18.614c0,0,20.445-16.381,4.313-35.646S29.483,54.124,29.483,54.124z"/>
		<g>
			<g>
				<path fill="#FFFFFF" d="M21.649,52.959c-1.449-0.192-3.131,0.04-4.918,1.167c0,0-2.08,9.054-0.291,9.948l2.619,0.589
					C19.37,60.711,20.267,56.726,21.649,52.959z"/>
				<path d="M21.571,53.016c-1.703,0.03-3.262,0.579-4.607,1.478l0.191-0.27c-0.162,0.824-0.324,1.659-0.52,2.482
					c-0.207,0.824-0.396,1.652-0.559,2.486c-0.15,0.835-0.23,1.685-0.201,2.527c0.02,0.419,0.059,0.84,0.17,1.232
					c0.098,0.379,0.291,0.782,0.527,0.856l-0.068-0.024c0.891,0.125,1.771,0.284,2.652,0.441l-0.547,0.404
					c0.053-1.012,0.143-2.023,0.268-3.03c0.141-1.005,0.344-2,0.592-2.983C19.997,56.686,20.642,54.787,21.571,53.016z
					 M21.696,52.977c-0.432,1.972-0.914,3.899-1.252,5.856c-0.188,0.973-0.354,1.949-0.516,2.925
					c-0.174,0.975-0.316,1.956-0.42,2.941l-0.059,0.539l-0.49-0.134c-0.863-0.236-1.729-0.47-2.586-0.738l-0.059-0.019l-0.01-0.006
					c-0.537-0.355-0.604-0.878-0.684-1.304c-0.057-0.446-0.07-0.88-0.066-1.313c0.008-0.864,0.063-1.719,0.102-2.579
					c0.064-1.722,0.207-3.444,0.652-5.116l0.049-0.184l0.143-0.086c0.77-0.464,1.623-0.81,2.51-0.969
					c0.887-0.159,1.805-0.118,2.645,0.119l0.053,0.015L21.696,52.977z"/>
			</g>
			<g>
				<path fill="#FFFFFF" d="M28.585,55.893c0,0-2.902-2.295-6.953-2.938c-1.588,3.72-2.482,7.706-2.572,11.708l5.547,1.25
					C24.606,65.914,28.501,64.657,28.585,55.893z"/>
				<path d="M28.53,55.92c-1.098-0.617-2.229-1.15-3.391-1.575c-1.168-0.426-2.363-0.756-3.578-0.947l0.482-0.267
					c-0.766,1.823-1.605,3.646-2.096,5.592c-0.479,1.944-0.623,3.961-0.537,5.949l-0.273-0.352c1.869,0.319,3.725,0.707,5.584,1.082
					l-0.277,0.013c0.271-0.12,0.668-0.389,0.955-0.675c0.303-0.296,0.582-0.628,0.832-0.988c0.49-0.726,0.883-1.544,1.188-2.402
					C28.005,59.629,28.315,57.787,28.53,55.92z M28.634,55.894c0.168,1.885,0.121,3.825-0.387,5.709
					c-0.248,0.94-0.598,1.875-1.146,2.723c-0.27,0.425-0.584,0.832-0.963,1.187c-0.396,0.356-0.762,0.673-1.371,0.9l-0.131,0.049
					l-0.145-0.036c-1.84-0.458-3.684-0.903-5.51-1.417l-0.299-0.084l0.023-0.268c0.176-2.032,0.529-4.024,0.922-6.004
					c0.379-1.979,0.781-3.998,1.592-5.873l0.141-0.323l0.342,0.057c1.293,0.212,2.549,0.615,3.715,1.185
					c1.162,0.573,2.266,1.263,3.199,2.156l0.016,0.017L28.634,55.894z"/>
			</g>
		</g>
		<g opacity="0.27">
			<g>
				<path fill="#595959" d="M16.569,54.09c0,0-0.262,1.142-0.518,2.653c1.287,0.189,2.66-0.147,3.764-1.101
					c-0.934,2.757-1.729,5.818-1.783,8.791l1.027,0.231c0.195-2.65,0.668-5.313,1.375-7.915c-0.105-0.124-0.205-0.25-0.295-0.378
					c0.09,0.129,0.189,0.255,0.295,0.378c0.352-1.281,0.75-2.548,1.213-3.79C20.147,52.755,18.409,52.974,16.569,54.09z"/>
				<path fill="#595959" d="M28.585,55.893c0,0-2.902-2.295-6.953-2.938c-0.523,1.229-0.963,2.486-1.332,3.763
					c1.65,1.484,4.232,2.72,5.119,4.125c1.674,1.962-1.693,3.638-4.775,4.178l3.963,0.892
					C24.606,65.914,28.501,64.657,28.585,55.893z"/>
			</g>
		</g>
		<g>
			<g>
				<path fill="#7AD7EE" d="M66.978,19.273c-30.508-0.721-39.525,9.568-47.313,25.362c0,0-0.549,0.601-0.805,0.659
					c-1.66,0.381-3.479,1.254-4.502,4.488c-0.865,2.728,0.754,5.384,2.758,5.727c1.162,0.198,2.318-0.408,3.186-1.488
					c1.814,3.122,6.506,5.546,12.152,5.914c3.619,0.236,6.955-0.421,9.469-1.672c5.793,1.419,11.156,3.022,14.848,6.714
					c5.324,5.325,5.324,22.63,0,26.623c-4.918,7.356-2.57,6.707-4.328,10.448l-0.35,0.07c0,0-2.145,8.956-3.664,15.7
					c-3.412,15.146-4.141,21.687-1.77,34.88c0,0-13.938,58.645,9.475,10.014c0,0,10.355,3.651,13.721,1.877
					c0,0,38.93,34.564,19-3.258c0,0,12.064-8.725,4.98-31.575c-6.596-21.281-10.238-23.372-7.688-27.823
					c-2.48,1.105-2.752,2.365-2.752,5.64c0-3.275-0.602-3.663,1.879-4.768c0.189-0.328,0.4-0.64,0.643-0.936l0.01-0.004
					c1.402-0.416,5.346-1.767,6.609-2.309l0.033-0.012l-0.008,0.001c9.996-4.29,15.779-12.667,19.563-28.172
					C116.562,53.182,102.685,20.116,66.978,19.273z M48.37,155.048c2.662,3.993,5.324,6.655,9.318,7.986
					C53.694,161.704,51.032,159.042,48.37,155.048z"/>
			</g>
			<g>
				<path fill="#020001" d="M66.977,19.323c-4.813-0.097-9.641,0.042-14.415,0.669c-4.764,0.628-9.5,1.75-13.863,3.78
					c-4.365,2.013-8.231,5.039-11.281,8.737c-3.076,3.69-5.406,7.931-7.519,12.241l-0.017,0.034l-0.025,0.027
					c-0.14,0.151-0.277,0.291-0.435,0.428c-0.079,0.068-0.16,0.136-0.259,0.201c-0.088,0.07-0.287,0.13-0.351,0.138
					c-0.362,0.09-0.72,0.202-1.057,0.351c-0.678,0.291-1.274,0.736-1.75,1.296c-0.477,0.561-0.838,1.222-1.113,1.919
					c-0.282,0.708-0.482,1.416-0.476,2.145c-0.008,1.442,0.716,2.939,1.956,3.626c1.28,0.75,2.789,0.05,3.668-1.103l0.294-0.387
					l0.256,0.429c0.972,1.627,2.565,2.84,4.273,3.716c1.723,0.878,3.605,1.442,5.523,1.747c1.922,0.302,3.883,0.352,5.806,0.134
					c1.923-0.221,3.822-0.718,5.538-1.572l0.14-0.07l0.154,0.037c3.645,0.879,7.339,1.858,10.719,3.67
					c1.681,0.905,3.267,2.035,4.587,3.446c1.325,1.506,2.078,3.31,2.641,5.13c1.077,3.668,1.345,7.506,1.064,11.285
					c-0.156,1.89-0.466,3.776-1.042,5.6c-0.594,1.795-1.416,3.648-3.019,4.897l0.079-0.083c-1.048,1.576-2.089,3.179-2.824,4.889
					c-0.374,0.86-0.567,1.727-0.667,2.682c-0.105,0.971-0.421,1.948-0.845,2.817l-0.068,0.141l-0.147,0.029l-0.35,0.069l0.235-0.228
					l-2.983,12.488c-0.972,4.168-1.94,8.336-2.715,12.54c-0.773,4.2-1.301,8.455-1.255,12.727c0.035,4.272,0.642,8.519,1.403,12.722
					l0.007,0.037l-0.009,0.038c-0.998,4.332-1.896,8.692-2.664,13.071c-0.38,2.19-0.725,4.386-0.992,6.59
					c-0.256,2.201-0.482,4.422-0.384,6.618c0.03,0.546,0.087,1.092,0.213,1.608c0.122,0.497,0.356,1.045,0.742,1.125
					c0.394,0.084,0.886-0.253,1.275-0.585c0.401-0.354,0.77-0.759,1.116-1.183c1.377-1.714,2.522-3.628,3.633-5.545
					c2.2-3.856,4.182-7.842,6.107-11.849l0.106-0.221l0.235,0.079c2.208,0.741,4.47,1.371,6.752,1.825
					c1.143,0.223,2.294,0.399,3.444,0.463c1.133,0.052,2.337,0.034,3.281-0.436l0.201-0.1l0.166,0.144
					c2.953,2.567,6.009,5.037,9.154,7.367c3.156,2.295,6.393,4.575,9.931,6.123c0.884,0.366,1.801,0.683,2.706,0.771
					c0.91,0.1,1.756-0.157,2.039-0.941c0.311-0.771,0.237-1.756,0.089-2.678c-0.159-0.936-0.421-1.868-0.723-2.787
					c-1.242-3.676-3.006-7.192-4.812-10.66l-0.171-0.328l0.306-0.249c1.934-1.575,3.46-3.79,4.57-6.095
					c1.112-2.332,1.812-4.855,2.161-7.424c0.7-5.155,0.022-10.432-1.329-15.465c-1.452-5.029-3.165-10.025-5.017-14.939
					l-2.875-7.364c-0.461-1.243-0.938-2.495-1.168-3.874c-0.11-0.687-0.13-1.421,0.016-2.135c0.142-0.714,0.434-1.377,0.777-1.976
					l0.62,0.686c-1.001,0.438-1.849,1.031-2.144,1.98c-0.318,0.949-0.307,2.098-0.316,3.215h-0.98c0-0.47-0.014-0.938-0.033-1.414
					c-0.016-0.479-0.057-0.952-0.01-1.502c0.025-0.272,0.09-0.583,0.247-0.873c0.157-0.29,0.387-0.516,0.61-0.685
					c0.453-0.338,0.906-0.538,1.354-0.744l-0.226,0.204c0.2-0.348,0.429-0.686,0.688-1.002l0.08-0.098l0.118-0.047l0.009-0.004
					l0.02-0.008l0.024-0.007c1.103-0.335,2.217-0.716,3.319-1.096l1.651-0.586c0.557-0.204,1.071-0.395,1.641-0.631l0.232,0.958
					l-0.008,0.001l-3.558,0.446l3.301-1.395c4.316-1.823,8.137-4.728,11-8.438c2.88-3.704,4.87-8.05,6.399-12.513
					c1.466-4.493,2.887-9.069,2.821-13.797c0.024-4.715-0.855-9.425-2.377-13.897c-3.054-8.944-8.826-17.007-16.538-22.541
					c-3.845-2.772-8.15-4.898-12.679-6.314C76.464,20.169,71.724,19.453,66.977,19.323z M66.979,19.223
					c4.757,0.095,9.517,0.776,14.076,2.17c4.559,1.388,8.907,3.493,12.8,6.256c7.813,5.515,13.691,13.607,16.863,22.621
					c1.582,4.509,2.521,9.271,2.543,14.075c0.004,2.399-0.224,4.81-0.787,7.158c-0.556,2.32-1.189,4.625-1.941,6.896
					c-1.505,4.529-3.482,8.979-6.418,12.832c-1.468,1.916-3.166,3.674-5.094,5.144c-1.922,1.477-4.046,2.678-6.264,3.628
					L92.5,99.055l0.008-0.001l3.592-0.447l-3.359,1.405c-0.514,0.215-1.1,0.433-1.644,0.631l-1.666,0.59
					c-1.115,0.383-2.222,0.761-3.363,1.107l0.042-0.015l-0.009,0.004l0.197-0.145c-0.222,0.27-0.419,0.561-0.597,0.869l-0.079,0.137
					l-0.147,0.066c-0.42,0.19-0.846,0.39-1.159,0.627c-0.32,0.244-0.435,0.458-0.476,0.873c-0.038,0.404-0.005,0.889,0.012,1.365
					c0.02,0.48,0.034,0.967,0.034,1.454h-0.98c0.021-1.143-0.023-2.315,0.376-3.538c0.201-0.607,0.598-1.188,1.091-1.6
					c0.492-0.417,1.037-0.703,1.577-0.946l1.413-0.637l-0.793,1.323c-0.647,1.08-0.902,2.249-0.68,3.479
					c0.2,1.227,0.657,2.459,1.112,3.682l2.867,7.367c1.857,4.95,3.562,9.935,5.027,15.034c1.368,5.12,2.063,10.514,1.337,15.834
					c-0.363,2.65-1.09,5.266-2.25,7.692c-1.184,2.417-2.699,4.673-4.864,6.434l0.136-0.577c1.821,3.491,3.576,7.035,4.828,10.815
					c0.305,0.948,0.571,1.914,0.735,2.916c0.142,0.996,0.265,2.059-0.16,3.136c-0.209,0.532-0.673,1.025-1.229,1.237
					c-0.553,0.223-1.117,0.23-1.643,0.185c-1.055-0.112-2.013-0.46-2.937-0.847c-3.662-1.631-6.883-3.942-10.054-6.272
					c-3.152-2.365-6.197-4.855-9.156-7.458l0.366,0.044c-1.19,0.568-2.435,0.537-3.62,0.486c-1.193-0.075-2.366-0.264-3.525-0.497
					c-2.318-0.478-4.582-1.125-6.818-1.892l0.342-0.141c-1.947,4.006-3.942,7.992-6.168,11.861c-1.126,1.926-2.28,3.844-3.699,5.599
					c-0.358,0.436-0.742,0.855-1.178,1.237c-0.222,0.187-0.457,0.365-0.729,0.507c-0.268,0.139-0.6,0.253-0.963,0.176
					c-0.366-0.084-0.621-0.366-0.771-0.633c-0.158-0.272-0.245-0.557-0.317-0.839c-0.136-0.566-0.19-1.133-0.221-1.696
					c-0.093-2.256,0.146-4.481,0.409-6.696c0.277-2.214,0.631-4.415,1.02-6.609c0.784-4.386,1.699-8.745,2.715-13.084l-0.002,0.075
					c-0.75-4.218-1.301-8.487-1.357-12.783c-0.078-4.296,0.42-8.583,1.165-12.803c0.744-4.224,1.685-8.404,2.622-12.582
					l2.888-12.516l0.043-0.188l0.193-0.039l0.349-0.072l-0.216,0.17c0.401-0.848,0.676-1.71,0.773-2.639
					c0.088-0.94,0.305-1.956,0.692-2.849c0.764-1.802,1.807-3.419,2.854-5.02l0.029-0.045l0.05-0.039
					c1.393-1.087,2.195-2.836,2.748-4.566c0.546-1.757,0.839-3.597,0.981-5.443c0.256-3.69-0.033-7.461-1.093-10.992
					c-0.542-1.744-1.304-3.476-2.479-4.792c-1.252-1.325-2.768-2.395-4.389-3.256c-3.264-1.72-6.897-2.677-10.515-3.598l0.294-0.033
					c-1.838,0.895-3.828,1.395-5.831,1.609c-2.01,0.21-4.037,0.142-6.019-0.187c-1.984-0.333-3.933-0.931-5.729-1.865
					c-1.78-0.934-3.465-2.217-4.522-4.016l0.55,0.041c-0.517,0.632-1.178,1.189-1.993,1.467c-0.409,0.141-0.833,0.196-1.289,0.156
					c-0.41-0.039-0.844-0.18-1.211-0.385c-1.493-0.856-2.26-2.555-2.246-4.183c-0.002-0.828,0.238-1.635,0.535-2.357
					c0.298-0.738,0.692-1.452,1.225-2.068c0.531-0.616,1.211-1.114,1.96-1.427c0.373-0.161,0.758-0.277,1.146-0.371
					c0.238-0.022,0.536-0.357,0.783-0.603l-0.041,0.06c2.15-4.313,4.55-8.561,7.696-12.254c3.122-3.702,7.064-6.716,11.479-8.692
					c4.401-2.016,9.157-3.128,13.935-3.737C57.328,19.228,62.163,19.107,66.979,19.223z"/>
				<path fill="#020001" d="M48.411,155.02c0.568,0.878,1.307,1.632,2.047,2.359c0.756,0.715,1.457,1.448,2.166,2.18
					c0.7,0.739,1.434,1.48,2.304,2.04c0.868,0.562,1.848,0.935,2.847,1.175l-0.173,0.52c-2.079-0.478-4.041-1.575-5.618-3.034
					c-0.778-0.743-1.479-1.559-2.025-2.477c-0.563-0.905-1.046-1.842-1.63-2.708L48.411,155.02z M48.412,155.021
					c0.576,0.869,1.31,1.63,2.058,2.35c0.766,0.705,1.473,1.436,2.234,2.104c0.753,0.672,1.531,1.315,2.381,1.861
					c0.852,0.541,1.747,1.025,2.689,1.44l-0.173,0.52c-0.98-0.418-1.914-0.909-2.839-1.416c-0.924-0.506-1.861-1.033-2.7-1.705
					c-0.829-0.677-1.537-1.492-2.093-2.4c-0.57-0.896-1.049-1.841-1.641-2.697L48.412,155.021z"/>
			</g>
		</g>
		<path opacity="0.25" fill="#078D9E" d="M49.294,155.025c1.211,7.625-0.92,13.985-4.854,18.563
			c-0.758,9.357,1.043,13.236,11.793-10.997C53.448,161.422,51.136,157.711,49.294,155.025z"/>
		<g>
			<path fill="#7AD7EE" d="M84.147,103.4c0.277-0.188,0.641-0.377,1.127-0.594c0.137-0.238,0.303-0.458,0.467-0.678
				C85.003,102.5,84.497,102.903,84.147,103.4z"/>
			<g>
				<path fill="#020001" d="M84.106,103.445l0.014-0.086c0.047-0.306,0.215-0.51,0.385-0.654c0.094-0.065,0.184-0.132,0.291-0.163
					c0.109-0.028,0.236-0.014,0.359-0.001l-0.133,0.122c0.148-0.087,0.277-0.169,0.352-0.289c0.084-0.11,0.109-0.265,0.139-0.414
					l0.355,0.423c-0.207,0.324-0.439,0.527-0.68,0.708c-0.268,0.148-0.545,0.251-1,0.339L84.106,103.445z M84.106,103.372
					c-0.059-0.473,0.158-0.858,0.436-1.126c0.146-0.129,0.322-0.211,0.502-0.274c0.172-0.075,0.365-0.103,0.568-0.097l1.104,0.03
					l-0.748,0.393c-0.133,0.071-0.271,0.138-0.346,0.25c-0.084,0.105-0.104,0.253-0.094,0.403l-0.004-0.066l-0.131,0.188
					c-0.07,0.1-0.137,0.202-0.221,0.265c-0.084,0.06-0.186,0.086-0.281,0.118c-0.207,0.05-0.41,0.055-0.717-0.014l-0.063-0.014
					L84.106,103.372z"/>
			</g>
		</g>
		<g>
			<path fill="#7AD7EE" d="M84.147,103.4c0.277-0.188,0.641-0.377,1.127-0.594c0.137-0.238,0.303-0.458,0.467-0.678
				C85.003,102.5,84.497,102.903,84.147,103.4z"/>
			<g>
				<path fill="#020001" d="M84.106,103.445l0.014-0.086c0.047-0.306,0.215-0.51,0.385-0.654c0.094-0.065,0.184-0.132,0.291-0.163
					c0.109-0.028,0.236-0.014,0.359-0.001l-0.133,0.122c0.148-0.087,0.277-0.169,0.352-0.289c0.084-0.11,0.109-0.265,0.139-0.414
					l0.355,0.423c-0.207,0.324-0.439,0.527-0.68,0.708c-0.268,0.148-0.545,0.251-1,0.339L84.106,103.445z M84.106,103.372
					c-0.059-0.473,0.158-0.858,0.436-1.126c0.146-0.129,0.322-0.211,0.502-0.274c0.172-0.075,0.365-0.103,0.568-0.097l1.104,0.03
					l-0.748,0.393c-0.133,0.071-0.271,0.138-0.346,0.25c-0.084,0.105-0.104,0.253-0.094,0.403l-0.004-0.066l-0.131,0.188
					c-0.07,0.1-0.137,0.202-0.221,0.265c-0.084,0.06-0.186,0.086-0.281,0.118c-0.207,0.05-0.41,0.055-0.717-0.014l-0.063-0.014
					L84.106,103.372z"/>
			</g>
		</g>
		<path opacity="0.25" fill="#078D9E" d="M42.337,54.701c-6.104,0-14.824,2.616-21.801-2.616c-0.773-0.774-3.609,1.196-6.066,1.038
			c0.51,1.264,1.516,2.193,2.646,2.386c1.162,0.198,2.318-0.408,3.186-1.488c1.814,3.122,6.506,5.546,12.152,5.914
			c3.619,0.236,6.955-0.421,9.469-1.672c5.793,1.419,11.156,3.022,14.848,6.714c5.324,5.325,5.324,22.63,0,26.623
			c-4.918,7.356-2.57,6.707-4.328,10.448l-0.35,0.07c0,0-0.035,3.043-0.348,6.961c6.906-10.202,10.648-22.884,10.648-34.322
			C63.267,64.293,51.058,54.701,42.337,54.701z"/>
		<path opacity="0.25" fill="#078D9E" d="M66.978,19.273c-7.643-0.181-13.936,0.33-19.199,1.445
			c10.33,0.732,20.436,4.205,29.439,10.438c0.873,0-0.871,4.36-0.871,4.36c10.463,7.848,7.848,17.44,14.824,26.161
			c2.615,4.36,7.848,0,12.207-0.872c3.488,19.185-11.336,37.497-28.775,43.601c16.568,12.208,17.025,36.957,9.178,56.142
			c-0.871,1.744-3.488,3.488-6.104,4.361c8.834-2.209,15.182,7.393,14.846,14.109c3.078-0.246,3.176-4.697-3.668-17.686
			c0,0,12.064-8.725,4.98-31.575c-6.596-21.281-10.238-23.372-7.688-27.823c-0.145,0.064-0.277,0.128-0.406,0.194
			c-0.164,0.221-0.33,0.44-0.467,0.678c-0.486,0.217-0.85,0.406-1.127,0.594c-0.648,0.921-0.752,2.169-0.752,4.174
			c0-2.633-0.387-3.4,0.752-4.174c0.35-0.497,0.855-0.9,1.594-1.272c0.063-0.084,0.109-0.176,0.176-0.257l0.01-0.004
			c1.402-0.416,5.346-1.767,6.609-2.309l0.033-0.012l-0.008,0.001c9.996-4.29,15.779-12.667,19.563-28.172
			C116.562,53.182,102.685,20.116,66.978,19.273z"/>
		<g>
			<path fill="#7AD7EE" d="M84.147,103.4c0.277-0.188,0.641-0.377,1.127-0.594c0.137-0.238,0.303-0.458,0.467-0.678
				C85.003,102.5,84.497,102.903,84.147,103.4z"/>
			<g>
				<path fill="#020001" d="M84.106,103.445l0.014-0.086c0.047-0.306,0.215-0.51,0.385-0.654c0.094-0.065,0.184-0.132,0.291-0.163
					c0.109-0.028,0.236-0.014,0.359-0.001l-0.133,0.122c0.148-0.087,0.277-0.169,0.352-0.289c0.084-0.11,0.109-0.265,0.139-0.414
					l0.355,0.423c-0.207,0.324-0.439,0.527-0.68,0.708c-0.268,0.148-0.545,0.251-1,0.339L84.106,103.445z M84.106,103.372
					c-0.059-0.473,0.158-0.858,0.436-1.126c0.146-0.129,0.322-0.211,0.502-0.274c0.172-0.075,0.365-0.103,0.568-0.097l1.104,0.03
					l-0.748,0.393c-0.133,0.071-0.271,0.138-0.346,0.25c-0.084,0.105-0.104,0.253-0.094,0.403l-0.004-0.066l-0.131,0.188
					c-0.07,0.1-0.137,0.202-0.221,0.265c-0.084,0.06-0.186,0.086-0.281,0.118c-0.207,0.05-0.41,0.055-0.717-0.014l-0.063-0.014
					L84.106,103.372z"/>
			</g>
		</g>
		<path d="M26.249,45.254c-0.527,2.26-3.9,5.821-6.873,5.127c-2.973-0.693-4.416-3.093-3.887-5.353
			c0.525-2.259,2.156-3.937,5.131-3.244C23.591,42.478,26.774,42.995,26.249,45.254z"/>
		<g>
			<path d="M49.212,44.672c-1.08,2.045-2.426,3.455-4.457,2.382s-2.805-3.601-1.725-5.646c1.082-2.045,3.605-2.833,5.635-1.76
				C50.696,40.721,50.292,42.627,49.212,44.672z"/>
			<ellipse fill="#FFFFFF" cx="44.457" cy="42.461" rx="0.499" ry="0.834"/>
		</g>
		<g>
			<path d="M23.384,39.642c-1.273,1.167-2.348,1.843-2.52,0.674c-0.172-1.168,0.723-3.063,1.998-4.23
				c1.275-1.167,2.447-1.166,2.619,0.002C25.655,37.257,24.659,38.475,23.384,39.642z"/>
			
				<ellipse transform="matrix(0.8347 0.5506 -0.5506 0.8347 24.2101 -6.4474)" fill="#FFFFFF" cx="22.847" cy="37.111" rx="0.194" ry="0.684"/>
		</g>
		<ellipse opacity="0.42" fill="#FF9494" cx="45.282" cy="84.034" rx="7.775" ry="2.251"/>
		<ellipse fill="#FFFFFF" cx="49.463" cy="82.437" rx="2.39" ry="1.598"/>
		<ellipse opacity="0.42" fill="#FF9494" cx="48.024" cy="50.639" rx="7.775" ry="2.251"/>
		<ellipse fill="#FFFFFF" cx="52.205" cy="49.042" rx="2.39" ry="1.598"/>
		<g>
			<path fill="#7AD7EE" d="M125.228,38.607c3.219-13.804-5.363-27.604-19.168-30.823c-13.805-3.219-27.605,5.362-30.824,19.167
				c-0.779,3.345-0.861,6.689-0.35,9.884c8.895,3.85,14.877,11.534,17.541,20.387c0.646,0.206,1.303,0.396,1.977,0.552
				C108.208,60.993,122.009,52.412,125.228,38.607z"/>
			<g>
				<path fill="#020001" d="M125.179,38.596c0.818-3.672,0.881-7.534-0.002-11.188c-0.854-3.656-2.535-7.095-4.852-10.009
					c-4.578-5.894-11.756-9.562-19.203-9.925c-3.717-0.189-7.492,0.452-10.949,1.902c-3.445,1.462-6.592,3.681-9.055,6.515
					c-5.008,5.622-7.133,13.559-5.852,20.882L75.04,36.48c4.334,1.801,8.213,4.683,11.252,8.267
					c3.059,3.576,5.303,7.823,6.633,12.324l-0.34-0.345c3.303,1.074,6.801,1.438,10.25,1.093c3.453-0.309,6.83-1.372,9.893-3.027
					c3.066-1.655,5.799-3.959,7.947-6.736C122.839,45.285,124.349,42.018,125.179,38.596z M125.276,38.618
					c-0.768,3.458-2.289,6.735-4.361,9.616c-2.076,2.885-4.764,5.339-7.84,7.168c-3.072,1.843-6.564,2.981-10.137,3.402
					c-3.572,0.391-7.252,0.008-10.67-1.088l-0.26-0.083l-0.08-0.262c-1.332-4.36-3.463-8.49-6.387-11.991
					c-2.918-3.5-6.637-6.326-10.809-8.192l-0.197-0.088l-0.031-0.205c-0.566-3.791-0.277-7.695,0.828-11.344
					c1.104-3.651,3.014-7.041,5.537-9.879c5.043-5.682,12.602-9.091,20.277-8.894c3.828,0.071,7.639,1.05,11.059,2.796
					c3.424,1.746,6.404,4.323,8.693,7.386C125.479,23.125,127.06,31.263,125.276,38.618z"/>
			</g>
		</g>
		<path opacity="0.25" fill="#078D9E" d="M112.204,10.072c5.027,8.135,7.166,18.208,1.639,27.188
			c-5.232,6.976-14.824,12.208-20.928,9.592c-2.975-0.992-5.951-2.484-9.021-3.956c4.023,3.932,6.902,8.907,8.533,14.325
			c0.646,0.206,1.303,0.396,1.977,0.552c13.805,3.219,27.605-5.362,30.824-19.167C127.937,26.992,122.288,15.38,112.204,10.072z"/>
		<linearGradient id="SVGID_1_" gradientUnits="userSpaceOnUse" x1="80.5674" y1="24.1655" x2="97.3535" y2="40.1887">
			<stop  offset="0.0182" style="stop-color:#078D9E"/>
			<stop  offset="1" style="stop-color:#078D9E;stop-opacity:0"/>
		</linearGradient>
		<path opacity="0.38" fill="url(#SVGID_1_)" d="M98.722,33.504c0.563-8.438-3.838-15.602-9.83-16.003
			c-5.994-0.4-11.309,6.115-11.873,14.553c-0.137,2.045,0.021,4.014,0.42,5.831c3.963,1.299,8.805,5.6,10.432,10.503
			c0.283,0.051,0.57,0.091,0.861,0.11C94.726,48.899,98.157,41.942,98.722,33.504z"/>
		<g>
			<path fill="#7AD7EE" d="M82.45,37.26c0-0.696-0.006-1.394-0.117-2.09C82.165,35.755,82.185,36.466,82.45,37.26z"/>
			<path fill="#231F20" d="M82.464,37.318l-0.064-0.058c-0.189-0.174-0.275-0.348-0.338-0.522c-0.061-0.169-0.096-0.336-0.047-0.508
				c0.049-0.169,0.195-0.35,0.221-0.526c0.018-0.174-0.059-0.339-0.166-0.493l0.521,0.032c0.109,0.359,0.15,0.636,0.178,0.939
				c-0.021,0.306-0.072,0.626-0.271,1.061L82.464,37.318z M82.401,37.276c-0.418-0.238-0.623-0.614-0.697-1.015
				c-0.025-0.401,0.07-0.842,0.373-1.165l0.822-0.877l-0.303,0.91c-0.064,0.193-0.098,0.374-0.035,0.547
				c0.051,0.172,0.219,0.34,0.289,0.52c0.061,0.178,0.035,0.36-0.018,0.54c-0.061,0.175-0.145,0.35-0.334,0.526l-0.047,0.044
				L82.401,37.276z"/>
		</g>
		<g>
			<path fill="#7AD7EE" d="M78.962,36.388c-0.24-1.201-0.326-2.452-0.277-3.709c-0.199,0.129-0.396,0.221-0.594,0.221
				C77.218,33.772,78.091,35.516,78.962,36.388z"/>
			<path fill="#231F20" d="M79.083,36.606l-0.17-0.209c-0.439-0.539-0.604-1.193-0.641-1.823c-0.006-0.32,0.107-0.645,0.18-0.959
				c0.082-0.316,0.084-0.627,0.049-0.942l0.283,0.16c-0.17,0.153-0.363,0.333-0.693,0.399l0.234-0.097
				c-0.098,0.235-0.127,0.429-0.104,0.67c0.025,0.237,0.109,0.491,0.18,0.762c0.154,0.548,0.369,1.116,0.596,1.786L79.083,36.606z
				 M78.927,36.423c-0.689-0.264-1.201-0.819-1.51-1.495c-0.154-0.341-0.225-0.738-0.178-1.157c0.039-0.411,0.244-0.877,0.617-1.106
				l0.195-0.12l0.039,0.023c0.104,0.06,0.307,0.032,0.494-0.043l0.334-0.134l-0.053,0.294c-0.055,0.306-0.059,0.616,0.029,0.921
				c0.084,0.306,0.225,0.603,0.262,0.902c0.041,0.3,0.031,0.603,0.02,0.91c-0.023,0.301-0.055,0.621-0.166,0.959l-0.021,0.068
				L78.927,36.423z"/>
		</g>
		<g>
			<path fill="#006283" d="M92.583,18.711c-1.131-0.688-2.369-1.121-3.691-1.21c-5.994-0.4-11.309,6.115-11.873,14.553
				c-0.137,2.045,0.021,4.014,0.42,5.831c3.963,1.299,8.805,5.6,10.432,10.503c0.203,0.037,0.41,0.057,0.617,0.079
				c-0.236-3.512-1.191-6.49-3.422-9.462c0.873,0,1.744,0,1.744,0c0-1.744,0.873-4.36-0.871-5.232
				c-1.822-0.607-3.219,0.056-3.605,1.397c-0.166-1.047-0.58-2.094-1.627-3.142c-0.674-0.674-1.348,0.213-2.021,0.651
				C78.974,25.167,84.253,17.435,92.583,18.711z"/>
			<g>
				<path d="M92.38,18.648c-2.162-1.206-4.818-1.313-7.025-0.334c-2.285,0.996-4.084,2.882-5.365,5.004
					c-1.277,2.145-2.072,4.563-2.467,7.031c-0.371,2.467-0.383,5.025,0.113,7.491l-0.135-0.15c1.227,0.43,2.352,1.072,3.414,1.787
					c1.061,0.723,2.043,1.553,2.939,2.465c1.805,1.809,3.307,3.956,4.174,6.391l-0.129-0.112c0.197,0.028,0.398,0.051,0.605,0.068
					l-0.195,0.188c-0.137-1.684-0.453-3.353-1.043-4.923c-0.582-1.572-1.432-3.034-2.455-4.359l-0.389-0.502l0.643-0.008
					l1.744-0.021l-0.34,0.34c0.008-0.994,0.191-1.915,0.199-2.816c0.025-0.894-0.182-1.764-0.898-2.08l0.049,0.02
					c-0.639-0.202-1.322-0.277-1.91-0.085c-0.588,0.185-1.023,0.646-1.195,1.237l-0.504,1.754l-0.268-1.801
					c-0.139-0.927-0.518-1.782-1.119-2.498c-0.143-0.169-0.32-0.374-0.465-0.494c-0.1-0.073-0.166-0.09-0.318-0.04
					c-0.324,0.116-0.689,0.495-1.148,0.799l-0.619,0.411l0.029-0.746c0.074-1.901,0.465-3.787,1.158-5.553
					c0.688-1.767,1.658-3.431,2.93-4.842c1.264-1.41,2.852-2.552,4.637-3.195C88.745,18.452,90.608,18.359,92.38,18.648z
					 M92.577,18.748c-1.84-0.239-3.729-0.026-5.426,0.66c-1.703,0.671-3.195,1.811-4.373,3.202
					c-1.184,1.392-2.072,3.021-2.686,4.737c-0.602,1.721-0.955,3.529-1.027,5.347l-0.59-0.335c0.375-0.232,0.691-0.63,1.303-0.884
					c0.309-0.137,0.805-0.086,1.082,0.176c0.236,0.202,0.383,0.379,0.563,0.586c0.688,0.802,1.146,1.83,1.303,2.871l-0.773-0.047
					c0.213-0.822,0.91-1.529,1.725-1.759c0.813-0.249,1.645-0.125,2.379,0.116l0.021,0.006l0.029,0.014
					c0.504,0.24,0.912,0.728,1.082,1.243c0.182,0.516,0.205,1.032,0.195,1.522c-0.025,0.98-0.221,1.916-0.234,2.803l-0.004,0.344
					l-0.336-0.004l-1.744-0.021l0.256-0.51c1.018,1.396,1.857,2.936,2.414,4.575c0.564,1.638,0.84,3.355,0.928,5.067l0.012,0.211
					l-0.207-0.023c-0.205-0.023-0.416-0.053-0.629-0.09l-0.1-0.018L87.71,48.44c-0.375-1.199-0.943-2.338-1.635-3.394
					C85.386,43.99,84.587,43,83.69,42.108c-1.799-1.762-3.924-3.273-6.316-4.03l-0.107-0.035l-0.027-0.115
					c-0.58-2.505-0.717-5.111-0.346-7.672c0.355-2.553,1.195-5.058,2.566-7.26c1.352-2.189,3.273-4.144,5.725-5.095
					c1.211-0.473,2.537-0.69,3.826-0.535c1.291,0.138,2.523,0.619,3.59,1.312l0.141,0.091L92.577,18.748z"/>
			</g>
		</g>
		<ellipse transform="matrix(0.9522 -0.3053 0.3053 0.9522 -22.1274 16.4867)" cx="41.642" cy="78.981" rx="3.538" ry="0.669"/>
		<g>
			<path fill="#FFFFFF" d="M28.968,90.592c2.531-0.367,4.389-2.017,4.146-3.686c-0.053-0.372-0.199-0.622-0.414-0.791
				c-2.137,1.885-4.777,3.152-8.176,3.288C25.392,90.356,27.101,90.863,28.968,90.592z"/>
			<path d="M28.962,90.555c1.16-0.159,2.211-0.814,2.953-1.595c0.379-0.385,0.691-0.818,0.85-1.299
				c0.162-0.46,0.186-1.071-0.166-1.415l0.211-0.006c-1.217,0.901-2.408,1.835-3.797,2.515c-1.393,0.645-2.934,1.006-4.473,1.039
				l0.273-0.652c0.461,0.503,1.115,0.881,1.834,1.154C27.37,90.553,28.177,90.672,28.962,90.555z M28.974,90.629
				c-0.789,0.104-1.598,0.197-2.426,0.1c-0.824-0.083-1.68-0.396-2.311-1.062l-0.568-0.599l0.84-0.053
				c1.457-0.091,2.9-0.315,4.289-0.795c1.396-0.436,2.764-1.144,3.793-2.227l0.09-0.094l0.121,0.087
				c0.592,0.426,0.668,1.195,0.563,1.83c-0.135,0.658-0.545,1.209-1.021,1.61c-0.484,0.405-1.064,0.646-1.633,0.831
				C30.132,90.428,29.552,90.544,28.974,90.629z"/>
		</g>
		<g>
			<path fill="#FFFFFF" d="M28.343,86.277c-2.533,0.367-4.641,0.291-4.398,1.959c0.063,0.438,0.271,0.83,0.58,1.168
				c3.398-0.136,6.039-1.403,8.176-3.288C31.952,85.528,30.31,85.992,28.343,86.277z"/>
			<path d="M28.347,86.314c-1.092,0.159-2.232,0.417-3.217,0.773c-0.5,0.187-0.842,0.412-0.887,0.823
				c-0.07,0.441,0.09,0.965,0.41,1.376l-0.135-0.056c1.492,0.084,2.971-0.357,4.277-1.012c1.334-0.617,2.529-1.456,3.65-2.391
				l0.016,0.592c-0.174-0.142-0.48-0.226-0.82-0.252c-0.34-0.031-0.707-0.04-1.074-0.033C29.829,86.154,29.079,86.202,28.347,86.314
				z M28.337,86.24c0.365-0.06,0.729-0.133,1.088-0.226l1.084-0.299c0.365-0.094,0.738-0.188,1.141-0.213
				c0.393-0.023,0.859,0.003,1.289,0.311l0.369,0.265l-0.352,0.328c-1.125,1.048-2.49,1.852-3.943,2.352
				c-1.473,0.47-2.98,0.614-4.48,0.821l-0.064,0.009l-0.07-0.065c-0.436-0.403-0.775-0.974-0.779-1.657
				c-0.006-0.346,0.18-0.737,0.459-0.959c0.271-0.232,0.58-0.338,0.869-0.414c0.586-0.145,1.156-0.124,1.719-0.145
				C27.228,86.345,27.784,86.319,28.337,86.24z"/>
		</g>
		<path opacity="0.25" fill="#078D9E" d="M62.253,109.627c0,0-37.604,50.132,11.605,7.471"/>
		<g>
			<path fill="#7AD7EE" d="M63.108,108.008c0,0-41.102,47.308,11.041,8.284"/>
			<path fill="#020001" d="M63.146,108.041c-2.953,3.962-5.979,7.844-8.961,11.753c-1.512,1.937-3.049,3.868-4.34,5.962
				c-0.639,1.047-1.217,2.14-1.621,3.283c-0.197,0.563-0.359,1.175-0.273,1.716c0.066,0.562,0.563,0.748,1.135,0.688
				c1.141-0.127,2.262-0.691,3.348-1.208c1.088-0.544,2.145-1.159,3.199-1.781c2.102-1.259,4.143-2.63,6.189-3.99
				c4.107-2.707,8.156-5.515,12.297-8.212l0.061,0.08c-3.762,3.207-7.688,6.211-11.762,9.018c-2.047,1.39-4.148,2.702-6.314,3.918
				c-1.08,0.611-2.188,1.182-3.334,1.686c-1.148,0.49-2.326,0.971-3.66,1.037c-0.332,0.005-0.697-0.037-1.031-0.234
				c-0.342-0.205-0.527-0.601-0.553-0.943c-0.049-0.695,0.16-1.304,0.367-1.894c0.451-1.173,1.064-2.252,1.674-3.329
				c1.236-2.146,2.541-4.254,3.949-6.291c2.887-4.02,6.086-7.8,9.555-11.325L63.146,108.041z"/>
		</g>
		<g>
			<path fill="#020001" d="M29.692,50.47c2.777-0.282,5.574-0.281,8.363-0.148c2.791,0.127,5.576,0.465,8.33,0.992
				c2.744,0.553,5.473,1.294,8.053,2.429c1.285,0.569,2.539,1.219,3.721,1.984c1.16,0.792,2.268,1.674,3.189,2.724
				c-1.078-0.885-2.219-1.668-3.441-2.304c-1.205-0.664-2.467-1.221-3.758-1.691c-2.582-0.94-5.25-1.639-7.957-2.161
				c-2.703-0.543-5.445-0.902-8.195-1.209c-1.377-0.154-2.758-0.27-4.143-0.361C32.472,50.602,31.085,50.539,29.692,50.47z"/>
		</g>
		<g>
			<path fill="#020001" d="M28.831,52.891c3.484,0.051,6.957,0.543,10.371,1.29c3.416,0.748,6.77,1.844,9.951,3.345
				c3.164,1.521,6.184,3.472,8.607,6.059c1.205,1.291,2.264,2.722,3.102,4.272c0.811,1.563,1.426,3.224,1.738,4.938
				c-1.033-3.328-2.93-6.302-5.389-8.671c-2.467-2.371-5.389-4.23-8.488-5.697c-3.096-1.487-6.375-2.588-9.705-3.503
				c-1.666-0.457-3.354-0.842-5.053-1.172C32.269,53.395,30.556,53.122,28.831,52.891z"/>
		</g>
		<g>
			<path fill="#020001" d="M29.692,54.945c2.408,0.521,4.752,1.299,7.049,2.199c2.301,0.896,4.529,1.985,6.658,3.263
				c2.105,1.303,4.146,2.792,5.785,4.705c0.814,0.952,1.529,2.005,2.033,3.159c0.475,1.161,0.75,2.42,0.635,3.652
				c-0.113-1.226-0.479-2.398-1.076-3.438c-0.566-1.055-1.314-2.004-2.16-2.853c-1.689-1.704-3.668-3.117-5.736-4.371
				c-2.064-1.269-4.242-2.362-6.441-3.414c-1.102-0.527-2.219-1.019-3.348-1.492C31.974,55.855,30.833,55.407,29.692,54.945z"/>
		</g>
	</g>
</g>
</svg>
